PathFileType	4	(X/Y/Z)	 s01c0302.trc
DataRate	CameraRate	NumFrames	NumMarkers	Units	OrigDataRate	OrigDataStartFrame	OrigNumFrames
200	200	4	48	mm	200	1251	2000
Frame#	Time	racr			lacr			c7			jug			rlel			rdr			llel			ldr			s2			lic			ric			lasi			rasi			rpsi			lpsi			rgt			lgt			rth1			rth2			rth3			rth4			rlfc			rsh1			rsh2			rsh3			rsh4			rlmal			rmmal			rcal			rtoe			rmt5			lth1			lth2			lth4			lth3			llfc			lsh1			lsh2			lsh3			lsh4			llmal			lmmal			lcal			ltoe			lmt5			SBIKE			LBIKE			RBIKE			
		X1	Y1	Z1	X2	Y2	Z2	X3	Y3	Z3	X4	Y4	Z4	X5	Y5	Z5	X6	Y6	Z6	X7	Y7	Z7	X8	Y8	Z8	X9	Y9	Z9	X10	Y10	Z10	X11	Y11	Z11	X12	Y12	Z12	X13	Y13	Z13	X14	Y14	Z14	X15	Y15	Z15	X16	Y16	Z16	X17	Y17	Z17	X18	Y18	Z18	X19	Y19	Z19	X20	Y20	Z20	X21	Y21	Z21	X22	Y22	Z22	X23	Y23	Z23	X24	Y24	Z24	X25	Y25	Z25	X26	Y26	Z26	X27	Y27	Z27	X28	Y28	Z28	X29	Y29	Z29	X30	Y30	Z30	X31	Y31	Z31	X32	Y32	Z32	X33	Y33	Z33	X34	Y34	Z34	X35	Y35	Z35	X36	Y36	Z36	X37	Y37	Z37	X38	Y38	Z38	X39	Y39	Z39	X40	Y40	Z40	X41	Y41	Z41	X42	Y42	Z42	X43	Y43	Z43	X44	Y44	Z44	X45	Y45	Z45	X46	Y46	Z46	X47	Y47	Z47	X48	Y48	Z48	
1251	6.2550	715.759811	1371.157256	-106.247251	741.872592	1327.840793	-432.355699	696.675377	1436.272112	-272.971079	682.065500	1274.186484	-265.325253	632.087177	1098.856726	0.387376	736.905166	868.195690	-62.347985	654.442353	1070.012793	-550.890746	756.270256	872.648519	-463.616553	NaN	NaN	NaN	333.246689	1198.546120	-434.603935	304.493460	1237.459188	-111.578392	325.441356	1150.104921	-407.224969	332.121353	1188.530141	-138.601197	178.678313	1270.498546	-229.491165	184.245915	1260.105252	-336.806225	258.867815	1140.703516	-72.559067	236.895238	1068.858259	-448.533132	359.119683	1064.338469	-49.322385	434.429878	1030.528088	-50.256079	513.919434	987.735144	-54.679707	459.676203	1078.115059	-69.203618	586.042116	910.596166	-75.981347	506.545084	836.429054	-51.862025	447.587717	775.110629	-58.349965	379.564620	719.082894	-74.328699	482.752091	742.525317	-94.835865	269.400461	641.257511	-102.806001	315.004619	629.007823	-177.610432	217.494247	642.980372	-159.921638	406.171825	448.883187	-133.087737	307.005670	499.773779	-69.587664	236.228893	950.992035	-456.090942	265.357019	866.369928	-458.636611	317.188720	883.535884	-459.753468	288.878427	785.413904	-441.361128	313.896916	664.390903	-423.749719	241.599846	581.731978	-456.481895	213.314293	500.907215	-448.724042	182.345508	420.969934	-435.527441	267.562864	483.530720	-426.406833	145.915921	301.552637	-419.957939	175.661409	299.446102	-347.069787	98.495210	303.634461	-380.264962	306.794308	120.947802	-372.386701	211.522366	162.419434	-443.387919	-224.580410	892.850647	-253.452979	-12.684795	84.440175	-456.264674	-21.692007	81.042121	-56.104639	
1252	6.2600	714.922116	1371.313768	-105.397711	741.703840	1328.532781	-431.795188	696.151361	1436.648071	-272.522058	681.777721	1274.554379	-264.523075	628.041855	1099.812516	2.343482	736.115652	869.816258	-61.986524	654.638865	1070.635842	-550.211661	756.404078	872.282828	-463.770316	NaN	NaN	NaN	333.035211	1200.492071	-435.269083	302.668958	1239.566354	-111.773710	325.758622	1151.380997	-407.623257	331.207736	1190.346805	-138.584162	178.020813	1271.241078	-230.917918	184.045997	1261.189926	-337.927554	257.240736	1141.810770	-73.847715	238.494917	1070.008233	-449.870931	357.414570	1064.965640	-51.156424	433.046930	1030.936537	-52.482841	512.468845	988.613436	-55.725318	458.091978	1078.993543	-70.064743	585.053749	912.584590	-76.970262	508.647710	837.185616	-53.431468	450.518965	774.815043	-59.149895	383.357150	717.974831	-75.174145	485.768854	742.570428	-95.929370	272.529047	636.806663	-102.744124	318.211945	626.133527	-177.485825	219.865958	636.024755	-159.301112	416.335449	450.065424	-132.817091	315.238604	496.521872	-69.022560	238.543976	952.185296	-457.023995	268.042606	867.766353	-458.600925	319.626500	884.988276	-459.996855	291.579898	786.855497	-441.136225	316.102067	665.784436	-423.685987	241.888571	584.573016	-456.249595	211.866327	504.380009	-448.402861	179.157630	425.135787	-434.960221	265.841022	485.907535	-426.071230	140.239321	306.674103	-419.695271	169.648920	303.574507	-346.194530	92.689289	309.717915	-379.622691	296.570988	122.099590	-372.655665	202.362142	166.237200	-443.312164	-224.710969	892.859426	-253.500552	-12.714661	84.463774	-456.273748	-21.722723	81.068016	-56.125567	
1253	6.2650	713.934108	1371.394286	-104.440053	741.524686	1329.059662	-431.155467	695.641411	1436.992802	-272.004930	681.417063	1274.866770	-263.546450	623.877615	1101.028023	4.327523	735.355827	871.490211	-61.491675	654.873720	1071.166915	-549.687833	756.385870	872.098676	-463.906653	NaN	NaN	NaN	332.500199	1202.745726	-436.141397	301.183668	1241.600529	-112.037582	325.948995	1153.017170	-408.051831	330.217295	1192.334832	-138.350527	177.464291	1271.867270	-232.049677	183.684799	1262.266557	-338.737177	255.638073	1142.859358	-75.143714	239.938561	1071.517120	-451.029069	355.868876	1065.206540	-52.848947	431.480096	1031.068658	-53.924629	510.771187	988.671290	-56.899715	456.689943	1079.226686	-71.123773	583.791482	913.189013	-78.417414	509.914086	836.452461	-55.451872	452.203541	773.511220	-60.202814	385.310710	716.196366	-75.266326	487.351816	741.054363	-97.073082	275.520590	631.462405	-102.191772	321.119345	622.149497	-177.291759	221.956529	628.205645	-158.323736	426.024331	450.753802	-132.458873	323.294064	492.670462	-68.221797	241.182438	953.326655	-457.803099	271.542665	869.237166	-458.267837	322.779422	886.825914	-459.959124	295.351868	788.505853	-440.683842	319.305335	667.312912	-423.876901	242.845398	587.594431	-455.623819	211.175975	508.255294	-447.866839	176.605723	429.857616	-434.289394	264.775219	488.559226	-425.657680	135.122894	312.666938	-419.546420	164.240978	308.405857	-345.279804	87.427685	316.442828	-378.936845	286.461342	123.697840	-372.955379	193.531264	170.678736	-443.207411	-224.850237	892.873333	-253.512515	-12.742720	84.503402	-456.268442	-21.742297	81.081834	-56.144537	
1254	6.2700	712.774057	1371.435558	-103.317065	741.410188	1329.496927	-430.489800	695.171335	1437.343309	-271.398286	680.950930	1275.096169	-262.673260	620.083114	1102.199883	6.092418	734.652675	873.135606	-60.901119	655.224268	1071.798361	-549.451859	756.338547	871.187279	-464.399896	NaN	NaN	NaN	331.753738	1205.337150	-437.217085	299.997283	1243.479920	-112.237848	325.919604	1154.912544	-408.741795	329.484391	1194.014042	-138.411933	176.738555	1272.523610	-232.816507	183.306822	1263.326853	-339.195253	254.128607	1143.722777	-76.345899	241.190669	1073.007050	-451.928627	354.427385	1065.088771	-54.793285	430.008313	1030.631193	-55.378911	508.781028	988.000064	-58.206237	455.472089	1078.843060	-72.102906	582.490997	912.358135	-80.483889	509.859408	834.509536	-57.562766	452.635799	771.114775	-61.371563	386.244257	712.912982	-75.331252	488.000746	738.196066	-97.720354	278.228328	624.688433	-101.178581	323.109561	617.422538	-176.635359	223.778111	619.537055	-157.236140	434.826601	450.739512	-132.348978	330.664109	487.805925	-67.696346	244.119313	954.330726	-458.358248	275.713722	870.629498	-457.816141	326.953799	888.867327	-459.649457	300.079267	790.328497	-440.111538	323.237601	669.141287	-423.751715	244.771874	591.103226	-455.287883	211.185613	512.465615	-447.285400	174.801460	435.013848	-433.667672	264.443611	491.524285	-425.110307	130.561849	318.967175	-419.457977	159.608772	313.763570	-344.583392	82.684598	323.743435	-378.286610	276.629576	125.760449	-373.092379	185.061479	175.641720	-443.056521	-224.950688	892.905487	-253.502299	-12.767671	84.555460	-456.256516	-21.781291	81.126805	-56.130103	
